[center][img]http://img844.imageshack.us/img844/996/skylinev.jpg[/img][/center]

[center]Thx Hive

CM8 Doing It Right The First Time

Source Russian R5 DVD-9 with English 5.1 Audio on it
Skajlajn.2010.DVD-9

Video: 720x400 @bitrate 2200 2pass
Audio: English 5.1 @448 from R5
Sample: yes included

Encode: added brightness, sharpness,chroma,denoise,corrected rgb colours
and encoded it with higher bitrate as usual, but its really necessary for
the "fog+fast action flying scenes"
enjoy

 
http://www.imdb.com/title/tt1564585/


General
Complete name                    : Skyline.2010.R5.XVID.AC3.HQ.Hive-CM8.avi
Format                           : AVI
Format/Info                      : Audio Video Interleave
File size                        : 1.65 GiB
Duration                         : 1h 28mn
Overall bit rate                 : 2 657 Kbps
Writing application              : Nandub v1.0rc2
Writing library                  : Nandub build 1853/release

Video
ID                               : 0
Format                           : MPEG-4 Visual
Format profile                   : Advanced Simple@L5
Format settings, BVOP            : Yes
Format settings, QPel            : Yes
Format settings, GMC             : No warppoints
Format settings, Matrix          : Default (H.263)
Muxing mode                      : Packed bitstream
Codec ID                         : XVID
Codec ID/Hint                    : XviD
Duration                         : 1h 28mn
Bit rate                         : 2 200 Kbps
Width                            : 720 pixels
Height                           : 400 pixels
Display aspect ratio             : 16:9
Frame rate                       : 25.000 fps
Color space                      : YUV
Chroma subsampling               : 4:2:0
Bit depth                        : 8 bits
Scan type                        : Progressive
Bits/(Pixel*Frame)               : 0.306
Stream size                      : 1.36 GiB (83%)
Writing library                  : XviD 1.2.1 (UTC 2008-12-04)

Audio
ID                               : 1
Format                           : AC-3
Format/Info                      : Audio Coding 3
Mode extension                   : CM (complete main)
Codec ID                         : 2000
Duration                         : 1h 28mn
Bit rate mode                    : Constant
Bit rate                         : 448 Kbps
Channel(s)                       : 6 channels
Channel positions                : Front: L C R, Side: L R, LFE
Sampling rate                    : 48.0 KHz
Bit depth                        : 16 bits
Stream size                      : 284 MiB (17%)
Alignment                        : Split accross interleaves
Interleave, duration             : 40 ms (1.00 video frame)
Interleave, preload duration     : 500 ms





Eric Balfour ... Jarrod
Scottie Thompson ... Elaine
Brittany Daniel ... Candice
Crystal Reed ... Denise
Neil Hopkins ... Ray
David Zayas ... Oliver
Donald Faison ... Terry
Robin Gammell ... Walt
Tanya Newbould ... Jen
J. Paul Boehmer ... Colin




Strange lights descend on the city of Los Angeles, drawing people
outside like moths to a flame where an extraterrestrial force threatens
to swallow the entire human population off the face of the Earth.[/center]

[center][img]http://img204.imageshack.us/img204/4522/35753134.png[/img][/center]
[center][img]http://img25.imageshack.us/img25/7084/50258834.png[/img][/center]
[center][img]http://img709.imageshack.us/img709